<svg width="27" height="31" viewBox="0 0 27 31" fill="none" xmlns="http://www.w3.org/2000/svg">
<path d="M13.5 0C6.0558 0 0 6.95296 0 15.5C0 24.047 6.0558 31 13.5 31C20.9442 31 27 24.047 27 15.5C27 6.95296 20.9442 0 13.5 0ZM19.4062 16.7916H14.6249V22.2812C14.6249 22.9943 14.1211 23.5728 13.5 23.5728C12.8789 23.5728 12.3751 22.9943 12.3751 22.2812V16.7916H7.59375C6.97268 16.7916 6.46882 16.2131 6.46882 15.5C6.46882 14.7869 6.97268 14.2084 7.59375 14.2084H12.3751V8.71875C12.3751 8.00567 12.8789 7.42716 13.5 7.42716C14.1211 7.42716 14.6249 8.00567 14.6249 8.71875V14.2084H19.4062C20.0273 14.2084 20.5312 14.7869 20.5312 15.5C20.5312 16.2131 20.0273 16.7916 19.4062 16.7916Z" fill="#F8F8FF"/>
</svg>
