<svg width="27" height="31" viewBox="0 0 27 31" fill="none" xmlns="http://www.w3.org/2000/svg">
<path d="M24.4038 3.875H18.6923V2.90625C18.6923 1.30376 17.2947 0 15.5769 0H11.4231C9.70527 0 8.30769 1.30376 8.30769 2.90625V3.875H2.59615C1.16463 3.875 0 4.96145 0 6.29688V9.6875C0 10.2225 0.464971 10.6562 1.03846 10.6562H1.60598L2.50315 28.232C2.58239 29.7842 3.94927 31 5.61496 31H21.385C23.0508 31 24.4177 29.7842 24.4969 28.232L25.394 10.6562H25.9615C26.535 10.6562 27 10.2225 27 9.6875V6.29688C27 4.96145 25.8354 3.875 24.4038 3.875ZM10.3846 2.90625C10.3846 2.37211 10.8505 1.9375 11.4231 1.9375H15.5769C16.1495 1.9375 16.6154 2.37211 16.6154 2.90625V3.875H10.3846V2.90625ZM2.07692 6.29688C2.07692 6.0298 2.30986 5.8125 2.59615 5.8125H24.4038C24.6901 5.8125 24.9231 6.0298 24.9231 6.29688V8.71875C24.603 8.71875 3.4031 8.71875 2.07692 8.71875V6.29688ZM22.4223 28.1398C22.3959 28.6572 21.9402 29.0625 21.385 29.0625H5.61496C5.05971 29.0625 4.60408 28.6572 4.57773 28.1398L3.68524 10.6562H23.3148L22.4223 28.1398Z" fill="#F8F8FF"/>
<path d="M13.5 27.125C14.0735 27.125 14.5385 26.6912 14.5385 26.1562V13.5625C14.5385 13.0275 14.0735 12.5938 13.5 12.5938C12.9265 12.5938 12.4615 13.0275 12.4615 13.5625V26.1562C12.4615 26.6912 12.9264 27.125 13.5 27.125Z" fill="#F8F8FF"/>
<path d="M18.6923 27.125C19.2658 27.125 19.7308 26.6912 19.7308 26.1562V13.5625C19.7308 13.0275 19.2658 12.5938 18.6923 12.5938C18.1188 12.5938 17.6538 13.0275 17.6538 13.5625V26.1562C17.6538 26.6912 18.1188 27.125 18.6923 27.125Z" fill="#F8F8FF"/>
<path d="M8.30769 27.125C8.88118 27.125 9.34615 26.6912 9.34615 26.1562V13.5625C9.34615 13.0275 8.88118 12.5938 8.30769 12.5938C7.7342 12.5938 7.26923 13.0275 7.26923 13.5625V26.1562C7.26923 26.6912 7.73414 27.125 8.30769 27.125Z" fill="#F8F8FF"/>
</svg>
